<svg xmlns="http://www.w3.org/2000/svg" width="16" height="16" viewBox="0 0 256 315" fill="white">
  <path d="M213.803 167.03c.435 47.76 41.945 63.652 42.465 63.933-.35 1.093-6.44 21.964-21.18 43.51-12.84 18.632-26.105 37.302-47.105 37.65-20.583.3-27.202-12.184-50.816-12.184-23.61 0-30.97 11.796-50.493 12.56-20.25.766-35.656-20.17-48.6-38.737-26.435-38.092-46.578-107.63-19.52-154.565 13.395-23.43 37.33-38.23 63.41-38.57 19.77-.344 38.465 13.28 50.54 13.28 12.07 0 34.67-16.4 58.5-13.98 9.936.42 37.765 4 55.68 30.18-1.437.84-33.22 19.38-32.88 57.922M174.24 50.2c10.655-12.92 17.84-30.82 15.894-48.64C171.25 3.048 151.46 18.016 140.2 30.66c-10.1 11.74-19.007 30.326-16.654 48.16 19.17 1.47 38.86-9.87 50.693-28.622"/>
</svg> 