<?xml version="1.0" encoding="UTF-8"?>
<svg width="460" height="215" viewBox="0 0 460 215" fill="none" xmlns="http://www.w3.org/2000/svg">
  <!-- Background -->
  <rect width="460" height="215" fill="#1E293B"/>
  
  <!-- Grid pattern -->
  <path d="M0 10H460M0 30H460M0 50H460M0 70H460M0 90H460M0 110H460M0 130H460M0 150H460M0 170H460M0 190H460M0 210H460" stroke="#334155" stroke-width="1"/>
  <path d="M10 0V215M30 0V215M50 0V215M70 0V215M90 0V215M110 0V215M130 0V215M150 0V215M170 0V215M190 0V215M210 0V215M230 0V215M250 0V215M270 0V215M290 0V215M310 0V215M330 0V215M350 0V215M370 0V215M390 0V215M410 0V215M430 0V215M450 0V215" stroke="#334155" stroke-width="1"/>
  
  <!-- Game controller icon -->
  <path d="M230 80C210 80 194 96 194 116C194 136 210 152 230 152C250 152 266 136 266 116C266 96 250 80 230 80ZM240 96H250V106H240V96ZM210 106H220V116H230V126H220V136H210V126H200V116H210V106ZM240 126H250V136H240V126Z" fill="#64748B"/>
  
  <!-- Text -->
  <text x="230" y="180" font-family="Arial, sans-serif" font-size="14" fill="#94A3B8" text-anchor="middle">Image Not Available</text>
</svg> 