<svg xmlns="http://www.w3.org/2000/svg" width="16" height="16" viewBox="0 0 24 24" fill="white">
  <path d="M12.503 0c-.155 0-.315.008-.48.021-4.226.333-3.105 4.807-3.17 6.298-.041 1.092-.013 1.787.19 2.511.284 1.138 1.208 2.263 1.85 3.195.022.033.05.077.075.118.396.629.851 1.349 1.035 2.327.0067.035.0114.069.0153.104.324 1.602-.159 2.963-1.001 4.179-.537.786-1.291 1.504-1.857 2.169l-.18.215c-.386.468-.709.923-.873 1.428-.41.125-.056.256-.056.39v.103c.006.127.069.254.193.33.333.196.995.196 1.329 0 .3-.176.354-.363.353-.493v-.062c.001-.194-.069-.375-.201-.533-.092-.112-.199-.213-.289-.306l-.053-.057c-.131-.146-.225-.254-.262-.329l-.037-.082c-.146-.367-.068-.782.232-1.169.095-.125.22-.245.378-.395.403-.399 1.017-1.003 1.484-2.064.205-.473.351-1.013.443-1.595.135-.133.232-.282.306-.444l.074-.172c.27-.437 1.001-1.618 1.001-1.618.462.054 1.22.099 1.968-.333.799-.466 1.235-.896 1.235-.896s.21.851.679 1.359c.111.121.241.219.375.294l.123.073c.263.157.519.299.81.441.076.036.195.104.317.172.75.34 1.807.819 2.486 1.543.511.555.954 1.336 1.291 2.34.134.403.259.659.382.897l.104.21c.207.426.376.847.471 1.377.1.53.003.912-.257 1.289l-.068.109c-.1.176-.219.324-.359.527-.032.048-.131.19-.332.534-.045.078-.256.476-.261.484-.069.126-.155.243-.247.354-.022.028-.111.15-.3.33-.301.3-.795.471-1.25.471-.76 0-1.155-.348-1.586-.82l-.169-.196c-.279-.334-.457-.56-.577-.725l-.054-.08c-.204-.325-.431-.67-.519-1.144-.127-.693.063-1.585.153-2.105.029-.166.048-.267.062-.35l.001-.009c.086-.503.054-.749-.088-1.077-.088-.204-.145-.326-.243-.429-.18.047-.431.069-.679.069-.717 0-1.146-.407-1.31-.606-.089-.108-.106-.15-.138-.203l-.018-.032c-.131-.243-.173-.521-.173-.813 0-.31.042-.581.129-.828l.03-.092c.049-.152.101-.294.172-.432.019.454.459.922.965 1.209.473.27 1.039.408 1.644.408 1.389 0 2.468-.721 2.468-1.647 0-.254-.088-.476-.257-.692zm-2.69 10.316c.067.387.203.85.378 1.291.348.88.889 1.459 1.189 1.677.262-.343.499-.937.499-1.342 0-.222-.117-.461-.183-.546-.277-.357-.614-.475-.945-.475-.628 0-.876.489-.938.395zm-1.781-1.969c.205.192.322.43.322.691 0 .719-.968 1.359-2.221 1.359-.904 0-1.647-.378-1.955-.991-.139.013-.272.02-.404.02-.923 0-1.89-.398-1.89-1.069 0-.317.283-.689.718-.939-.595-.061-1.104-.358-1.104-.856 0-.596.851-1.135 1.903-1.135.192 0 .38.015.563.043.324-.749 1.205-1.293 2.229-1.293 1.327 0 2.397.881 2.397 1.953 0 .671-.337 1.261-.858 1.617.214.152.328.346.328.55 0 .5-.704.909-1.541.909-.546 0-1.055-.212-1.379-.548-.33.343-.824.565-1.376.565-.507 0-.977-.194-1.349-.496.721.51 1.669.824 2.709.824 1.252 0 2.376-.382 3.151-.991.304.254.7.415 1.136.453.192-.263.301-.559.301-.878 0-.324-.11-.615-.271-.873-.026.4-.074.796-.145 1.173-.131.647-.358 1.249-.645 1.763z"/>
</svg> 