<svg xmlns="http://www.w3.org/2000/svg" width="16" height="16" viewBox="0 0 24 24" fill="white">
  <path d="M17.5,9.5C19.433,9.5 21,11.067 21,13C21,14.933 19.433,16.5 17.5,16.5C15.567,16.5 14,14.933 14,13C14,11.067 15.567,9.5 17.5,9.5M14.61,7C15.81,5.67 17.5,4.5 19.5,4.5C19.67,4.5 19.83,4.5 20,4.5V3C20,1.9 19.1,1 18,1H6C4.9,1 4,1.9 4,3V4.5C4.17,4.5 4.33,4.5 4.5,4.5C6.5,4.5 8.19,5.67 9.39,7H14.61M9.39,9.5C7.5,9.5 5.61,9.5 3.73,9.5L3.47,9.77C2.86,10.54 2.59,10.97 2,11.38V17C2,18.1 2.9,19 4,19V21H6V19H18V21H20V19C21.1,19 22,18.1 22,17V11.38C21.41,10.97 21.14,10.54 20.53,9.77L20.27,9.5C18.39,9.5 16.5,9.5 14.61,9.5M6.5,9.5C8.43,9.5 10,11.07 10,13C10,14.93 8.43,16.5 6.5,16.5C4.57,16.5 3,14.93 3,13C3,11.07 4.57,9.5 6.5,9.5M6.5,12C5.67,12 5,12.67 5,13.5C5,14.33 5.67,15 6.5,15C7.33,15 8,14.33 8,13.5C8,12.67 7.33,12 6.5,12M17.5,12C16.67,12 16,12.67 16,13.5C16,14.33 16.67,15 17.5,15C18.33,15 19,14.33 19,13.5C19,12.67 18.33,12 17.5,12Z"/>
</svg> 